<svg width="210" height="34" viewBox="0 0 210 34" fill="none" xmlns="http://www.w3.org/2000/svg">
<path d="M6.31321 33.1498C9.69332 33.1498 12.4334 30.5604 12.4334 27.3662C12.4334 24.172 9.69332 21.5826 6.31321 21.5826C2.93311 21.5826 0.192993 24.172 0.192993 27.3662C0.192993 30.5604 2.93311 33.1498 6.31321 33.1498Z" fill="#00D0F5"/>
<path d="M34.0455 11.6421C37.4256 11.6421 40.1657 9.05273 40.1657 5.85854C40.1657 2.66435 37.4256 0.0749512 34.0455 0.0749512C30.6654 0.0749512 27.9253 2.66435 27.9253 5.85854C27.9253 9.05273 30.6654 11.6421 34.0455 11.6421Z" fill="#00D0F5"/>
<path d="M33.8542 17.6968C33.8542 17.6968 22.2832 15.2569 20.7531 14.2628C19.0318 13.088 16.0673 4.95486 16.0673 4.95486C14.7285 2.15343 11.7641 0.0749512 8.32143 0.0749512C3.73126 0.0749512 -0.0938734 3.59933 0.00175507 7.93702C0.0973835 13.2688 3.92252 14.9858 7.26952 15.7087C10.6165 16.4317 15.4936 17.3354 17.2149 18.4198C18.5537 19.3235 22.4744 25.7396 24.2914 28.6314C26.1083 31.5232 28.499 33.1499 31.846 33.1499C36.4362 33.1499 40.1657 29.6255 40.1657 25.2878C40.1657 21.673 37.4881 18.5101 33.8542 17.6968Z" fill="#00D0F5"/>
<path d="M75.1659 22.0345V5.94888H78.991V28.541H76.1221L62.5429 12.5458V28.541H58.7178V5.94888H61.6823L75.1659 22.0345Z" fill="#000555"/>
<path d="M86.6412 21.8536C86.9281 24.2936 89.0319 25.8298 92.1877 25.8298C93.909 25.8298 96.0128 25.1972 97.0647 24.1128L99.3598 26.1913C97.6385 27.9987 94.674 28.9024 92.092 28.9024C86.5456 28.9024 83.0073 25.5587 83.0073 20.4981C83.0073 15.6182 86.6412 12.1842 91.9008 12.1842C97.3516 12.1842 100.985 15.3471 100.412 21.8536H86.6412ZM96.9691 19.0522C96.7778 16.5219 94.7696 15.1663 91.9964 15.1663C89.4144 15.1663 87.3106 16.5219 86.7368 19.0522H96.9691Z" fill="#000555"/>
<path d="M117.434 12.636H120.876C120.876 17.9678 120.876 23.2995 120.876 28.5409H117.529L117.338 25.9202C116.191 27.9987 113.609 28.9024 111.505 28.9024C106.532 28.9024 102.898 25.9202 102.898 20.4981C102.898 15.1663 106.723 12.1842 111.6 12.1842C113.991 12.1842 116.286 13.2686 117.338 15.076L117.434 12.636ZM106.436 20.5885C106.436 23.8417 108.923 25.9202 111.887 25.9202C119.155 25.9202 119.155 15.3471 111.887 15.3471C108.827 15.2567 106.436 17.3352 106.436 20.5885Z" fill="#000555"/>
<path d="M128.909 12.6362L129.196 14.7147C130.439 12.6362 132.352 12.2747 134.169 12.2747C135.794 12.2747 137.42 12.817 138.376 13.6303L136.751 16.5221C135.89 15.8895 135.029 15.528 133.786 15.528C131.395 15.528 129.196 16.9739 129.196 19.8657V28.4507H125.658V12.6362H128.909Z" fill="#000555"/>
<path d="M151.477 16.5219C150.138 15.3471 148.704 15.076 147.078 15.076C144.879 15.076 143.444 15.7085 143.444 16.9737C143.444 18.3292 144.975 18.7811 147.078 19.0522C150.234 19.3233 154.251 19.9559 154.251 24.0225C154.251 27.0046 151.477 29.0831 147.078 29.0831C144.305 29.0831 141.628 28.5409 139.428 26.1009L141.245 23.7514C142.775 25.378 145.166 26.1009 147.174 26.1009C148.895 26.1009 150.712 25.5587 150.808 24.0225C150.808 22.5766 149.373 22.0343 146.887 21.8536C143.731 21.5825 140.002 20.5885 140.002 17.0641C140.002 13.5397 143.827 12.1842 146.983 12.1842C149.565 12.1842 151.573 12.7264 153.485 14.353L151.477 16.5219Z" fill="#000555"/>
<path d="M161.04 12.6361V21.1308C161.04 23.8418 162.666 25.7396 165.63 25.7396C168.404 25.7396 170.316 23.5707 170.316 20.95V12.6361H173.854V28.6314H170.699L170.507 26.2818C168.882 28.0892 167.065 28.9025 164.674 28.9025C160.562 28.9025 157.598 26.1011 157.598 21.3115V12.7265H161.04V12.6361Z" fill="#000555"/>
<path d="M181.887 12.6362L182.174 14.7147C183.417 12.6362 185.33 12.2747 187.147 12.2747C188.772 12.2747 190.398 12.817 191.354 13.6303L189.729 16.5221C188.868 15.8895 188.007 15.528 186.764 15.528C184.373 15.528 182.174 16.9739 182.174 19.8657V28.4507H178.636V12.6362H181.887Z" fill="#000555"/>
<path d="M195.849 21.8536C196.136 24.2936 198.24 25.8298 201.395 25.8298C203.117 25.8298 205.221 25.1972 206.272 24.1128L208.568 26.1913C206.846 27.9987 203.882 28.9024 201.3 28.9024C195.753 28.9024 192.215 25.5587 192.215 20.4981C192.215 15.6182 195.849 12.1842 201.109 12.1842C206.559 12.1842 210.193 15.3471 209.619 21.8536H195.849ZM206.081 19.0522C205.89 16.5219 203.882 15.1663 201.109 15.1663C198.527 15.1663 196.423 16.5219 195.849 19.0522H206.081Z" fill="#000555"/>
</svg>
